<?xml version="1.0" standalone="no"?>
<!DOCTYPE svg PUBLIC "-//W3C//DTD SVG 20010904//EN"
 "http://www.w3.org/TR/2001/REC-SVG-20010904/DTD/svg10.dtd">
<svg version="1.0" xmlns="http://www.w3.org/2000/svg"
 width="16.000000pt" height="16.000000pt" viewBox="0 0 16.000000 16.000000"
 preserveAspectRatio="xMidYMid meet">
<metadata>
Created by potrace 1.11, written by Peter Selinger 2001-2013
</metadata>
<g transform="translate(0.000000,16.000000) scale(0.006154,-0.006154)"
fill="#000000" stroke="none">
<path d="M300 2343 c0 -175 12 -453 25 -568 2 -22 7 -62 10 -90 9 -89 44 -292
55 -321 6 -16 11 -30 10 -32 -2 -5 38 -128 59 -180 65 -165 234 -457 319 -552
12 -13 22 -28 22 -32 0 -5 8 -16 18 -26 9 -10 30 -36 47 -57 71 -95 319 -361
396 -426 l45 -38 105 102 c108 105 181 183 259 276 25 29 52 61 60 70 63 69
280 386 280 410 0 5 4 11 9 13 11 4 79 140 124 250 34 81 79 227 91 291 2 15
7 35 10 45 6 22 36 255 41 330 13 171 17 259 20 472 1 145 -1 240 -7 248 -8 9
-221 12 -1004 12 l-994 0 0 -197z"/>
</g>
</svg>
